<svg width="24" height="24" viewBox="0 0 24 24" fill="none" xmlns="http://www.w3.org/2000/svg">

<defs>
<linearGradient id="gradientColor" x1="0%" y1="0%" x2="100%" y2="100%">
<stop offset="0%" style="stop-color:rgba(0,255,252,0.8);stop-opacity:1" />
<stop offset="50%" style="stop-color:rgba(252,0,255,0.6);stop-opacity:1" />
<stop offset="100%" style="stop-color:rgba(255,165,0,0.8);stop-opacity:1" />
</linearGradient>
</defs>
<path d="M16.2071 9.20711C16.5976 8.81658 16.5976 8.18342 16.2071 7.79289C15.8166 7.40237 15.1834 7.40237 14.7929 7.79289L7.79289 14.7929C7.40237 15.1834 7.40237 15.8166 7.79289 16.2071C8.18342 16.5976 8.81658 16.5976 9.20711 16.2071L16.2071 9.20711Z" fill="url(#gradientColor)"/>
<path fill-rule="evenodd" clip-rule="evenodd" d="M22 12C22 17.5228 17.5228 22 12 22C6.47715 22 2 17.5228 2 12C2 6.47715 6.47715 2 12 2C17.5228 2 22 6.47715 22 12ZM20 12C20 16.4183 16.4183 20 12 20C7.58172 20 4 16.4183 4 12C4 7.58172 7.58172 4 12 4C16.4183 4 20 7.58172 20 12Z" fill="url(#gradientColor)"/>
</svg>

