<svg width="48" height="48" viewBox="0 0 48 48" fill="none" xmlns="http://www.w3.org/2000/svg">

<defs>
<linearGradient id="gradientColor" x1="0%" y1="0%" x2="100%" y2="100%">
<stop offset="0%" style="stop-color:rgba(0,255,252,0.8);stop-opacity:1" />
<stop offset="50%" style="stop-color:rgba(252,0,255,0.6);stop-opacity:1" />
<stop offset="100%" style="stop-color:rgba(255,165,0,0.8);stop-opacity:1" />
</linearGradient>
</defs>
<path d="M23.9999 44.0003C35.0456 44.0003 44 35.0458 44 24.0001C44 12.9543 35.0456 4 23.9999 4C12.9541 4 3.99976 12.9543 3.99976 24.0001C3.99976 35.0458 12.9541 44.0003 23.9999 44.0003Z" fill="url(#gradientColor)"/>
<path fill-rule="evenodd" clip-rule="evenodd" d="M24 41.5C33.665 41.5 41.5 33.665 41.5 24C41.5 14.335 33.665 6.5 24 6.5C14.335 6.5 6.5 14.335 6.5 24C6.5 33.665 14.335 41.5 24 41.5ZM24 44C35.0457 44 44 35.0457 44 24C44 12.9543 35.0457 4 24 4C12.9543 4 4 12.9543 4 24C4 35.0457 12.9543 44 24 44Z" fill="url(#gradientColor)"/>
</svg>

